# xmcd
#
# Track frame offsets:
# 150
# 13681
# 31649
# 44163
# 59267
# 81814
# 97470
# 110622
# 120785
# 133452
# 153042
#
# Disc length: 2768 seconds
#
#
# Revision: 2
# Processed by: cddbd v1.5PL3 Copyright (c) Steve Scherf et al.
# Submitted via: FreeRIP 2.70 
#
DISCID=8e0ace0b
DTITLE=Kings of Leon - Youth and Young Manhood
DYEAR=1900
DGENRE=
TTITLE0=Red Morning Light
TTITLE1=Happy Alone
TTITLE2=Wasted Time
TTITLE3=Joes Head
TTITLE4=Trani
TTITLE5=California Waiting
TTITLE6=Spiral Staircase
TTITLE7=Molly's Chambers
TTITLE8=Genius
TTITLE9=Dusty
TTITLE10=Holy Roller Novacaine
EXTD=
EXTT0=
EXTT1=
EXTT2=
EXTT3=
EXTT4=
EXTT5=
EXTT6=
EXTT7=
EXTT8=
EXTT9=
EXTT10=
PLAYORDER=
